<mxfile host="app.diagrams.net" modified="2021-10-15T09:59:57.251Z" agent="5.0 (Windows)" etag="6hDIBZeXanHyMRv61c_0" version="15.5.2" type="github">
  <diagram id="C5RBs43oDa-KdzZeNtuy" name="Page-1">
    <mxGraphModel dx="1038" dy="534" grid="1" gridSize="10" guides="1" tooltips="1" connect="1" arrows="1" fold="1" page="1" pageScale="1" pageWidth="827" pageHeight="1169" math="0" shadow="0">
      <root>
        <mxCell id="WIyWlLk6GJQsqaUBKTNV-0" />
        <mxCell id="WIyWlLk6GJQsqaUBKTNV-1" parent="WIyWlLk6GJQsqaUBKTNV-0" />
        <mxCell id="_pYosGrHa2MGI-XEjOZO-3" value="&lt;b&gt;OUTIL DE GESTION DES MEMBRES DE L&#39;ASSOCIATION&lt;/b&gt;" style="whiteSpace=wrap;html=1;" parent="WIyWlLk6GJQsqaUBKTNV-1" vertex="1">
          <mxGeometry x="360" y="240" width="160" height="80" as="geometry" />
        </mxCell>
        <mxCell id="_pYosGrHa2MGI-XEjOZO-16" style="edgeStyle=orthogonalEdgeStyle;rounded=0;orthogonalLoop=1;jettySize=auto;html=1;exitX=0.65;exitY=1;exitDx=0;exitDy=0;exitPerimeter=0;entryX=0.625;entryY=0;entryDx=0;entryDy=0;entryPerimeter=0;endArrow=none;endFill=0;" parent="WIyWlLk6GJQsqaUBKTNV-1" source="_pYosGrHa2MGI-XEjOZO-8" target="_pYosGrHa2MGI-XEjOZO-3" edge="1">
          <mxGeometry relative="1" as="geometry">
            <Array as="points">
              <mxPoint x="460" y="170" />
            </Array>
          </mxGeometry>
        </mxCell>
        <mxCell id="_pYosGrHa2MGI-XEjOZO-8" value="GESTIONNAIRE" style="shape=mxgraph.signs.people.man_1;html=1;pointerEvents=1;fillColor=#000000;strokeColor=none;verticalLabelPosition=bottom;verticalAlign=top;align=center;sketch=0;" parent="WIyWlLk6GJQsqaUBKTNV-1" vertex="1">
          <mxGeometry x="374" y="90" width="40" height="80" as="geometry" />
        </mxCell>
        <mxCell id="_pYosGrHa2MGI-XEjOZO-14" style="edgeStyle=orthogonalEdgeStyle;rounded=0;orthogonalLoop=1;jettySize=auto;html=1;exitX=0.15;exitY=0.9;exitDx=0;exitDy=0;exitPerimeter=0;entryX=0.75;entryY=0;entryDx=0;entryDy=0;endArrow=none;endFill=0;" parent="WIyWlLk6GJQsqaUBKTNV-1" target="_pYosGrHa2MGI-XEjOZO-3" edge="1" source="_pYosGrHa2MGI-XEjOZO-24">
          <mxGeometry relative="1" as="geometry">
            <mxPoint x="534" y="190" as="sourcePoint" />
            <Array as="points">
              <mxPoint x="536" y="190" />
              <mxPoint x="480" y="190" />
            </Array>
          </mxGeometry>
        </mxCell>
        <mxCell id="_pYosGrHa2MGI-XEjOZO-35" style="edgeStyle=orthogonalEdgeStyle;rounded=0;orthogonalLoop=1;jettySize=auto;html=1;exitX=0.65;exitY=1;exitDx=0;exitDy=0;exitPerimeter=0;endArrow=none;endFill=0;" parent="WIyWlLk6GJQsqaUBKTNV-1" source="_pYosGrHa2MGI-XEjOZO-23" target="_pYosGrHa2MGI-XEjOZO-33" edge="1">
          <mxGeometry relative="1" as="geometry">
            <Array as="points">
              <mxPoint x="286" y="755" />
              <mxPoint x="430" y="755" />
            </Array>
          </mxGeometry>
        </mxCell>
        <mxCell id="_pYosGrHa2MGI-XEjOZO-36" style="edgeStyle=orthogonalEdgeStyle;rounded=0;orthogonalLoop=1;jettySize=auto;html=1;exitX=1;exitY=0.5;exitDx=0;exitDy=0;exitPerimeter=0;entryX=0;entryY=0;entryDx=0;entryDy=0;endArrow=none;endFill=0;" parent="WIyWlLk6GJQsqaUBKTNV-1" source="_pYosGrHa2MGI-XEjOZO-23" target="_pYosGrHa2MGI-XEjOZO-32" edge="1">
          <mxGeometry relative="1" as="geometry">
            <Array as="points">
              <mxPoint x="380" y="725" />
              <mxPoint x="380" y="695" />
              <mxPoint x="478" y="695" />
              <mxPoint x="478" y="624" />
            </Array>
          </mxGeometry>
        </mxCell>
        <mxCell id="_pYosGrHa2MGI-XEjOZO-39" style="edgeStyle=orthogonalEdgeStyle;rounded=0;orthogonalLoop=1;jettySize=auto;html=1;exitX=0.5;exitY=0;exitDx=0;exitDy=0;exitPerimeter=0;endArrow=none;endFill=0;entryX=0.5;entryY=1;entryDx=0;entryDy=0;" parent="WIyWlLk6GJQsqaUBKTNV-1" source="_pYosGrHa2MGI-XEjOZO-23" target="_pYosGrHa2MGI-XEjOZO-38" edge="1">
          <mxGeometry relative="1" as="geometry">
            <mxPoint x="280" y="655" as="targetPoint" />
          </mxGeometry>
        </mxCell>
        <mxCell id="_pYosGrHa2MGI-XEjOZO-42" style="edgeStyle=orthogonalEdgeStyle;rounded=0;orthogonalLoop=1;jettySize=auto;html=1;exitX=0.1;exitY=0.2;exitDx=0;exitDy=0;exitPerimeter=0;entryX=1;entryY=0.5;entryDx=0;entryDy=0;endArrow=none;endFill=0;" parent="WIyWlLk6GJQsqaUBKTNV-1" source="_pYosGrHa2MGI-XEjOZO-23" target="_pYosGrHa2MGI-XEjOZO-40" edge="1">
          <mxGeometry relative="1" as="geometry" />
        </mxCell>
        <mxCell id="_pYosGrHa2MGI-XEjOZO-43" style="edgeStyle=orthogonalEdgeStyle;rounded=0;orthogonalLoop=1;jettySize=auto;html=1;exitX=0;exitY=0.5;exitDx=0;exitDy=0;exitPerimeter=0;endArrow=none;endFill=0;" parent="WIyWlLk6GJQsqaUBKTNV-1" source="_pYosGrHa2MGI-XEjOZO-23" target="_pYosGrHa2MGI-XEjOZO-41" edge="1">
          <mxGeometry relative="1" as="geometry" />
        </mxCell>
        <mxCell id="_pYosGrHa2MGI-XEjOZO-23" value="GESTIONNAIRE" style="shape=mxgraph.signs.people.man_1;html=1;pointerEvents=1;fillColor=#000000;strokeColor=none;verticalLabelPosition=bottom;verticalAlign=top;align=center;sketch=0;" parent="WIyWlLk6GJQsqaUBKTNV-1" vertex="1">
          <mxGeometry x="260" y="685" width="40" height="80" as="geometry" />
        </mxCell>
        <mxCell id="_pYosGrHa2MGI-XEjOZO-24" value="BÉNÉVOLES" style="shape=mxgraph.signs.people.man_1;html=1;pointerEvents=1;fillColor=#000000;strokeColor=none;verticalLabelPosition=bottom;verticalAlign=top;align=center;sketch=0;" parent="WIyWlLk6GJQsqaUBKTNV-1" vertex="1">
          <mxGeometry x="530" y="120" width="40" height="80" as="geometry" />
        </mxCell>
        <mxCell id="_pYosGrHa2MGI-XEjOZO-28" style="edgeStyle=orthogonalEdgeStyle;rounded=0;orthogonalLoop=1;jettySize=auto;html=1;exitX=1;exitY=0.5;exitDx=0;exitDy=0;exitPerimeter=0;entryX=0;entryY=1;entryDx=0;entryDy=0;endArrow=none;endFill=0;" parent="WIyWlLk6GJQsqaUBKTNV-1" source="_pYosGrHa2MGI-XEjOZO-25" target="_pYosGrHa2MGI-XEjOZO-26" edge="1">
          <mxGeometry relative="1" as="geometry">
            <Array as="points">
              <mxPoint x="110" y="500" />
              <mxPoint x="223" y="500" />
              <mxPoint x="223" y="501" />
            </Array>
          </mxGeometry>
        </mxCell>
        <mxCell id="_pYosGrHa2MGI-XEjOZO-29" style="edgeStyle=orthogonalEdgeStyle;rounded=0;orthogonalLoop=1;jettySize=auto;html=1;exitX=0.65;exitY=1;exitDx=0;exitDy=0;exitPerimeter=0;endArrow=none;endFill=0;" parent="WIyWlLk6GJQsqaUBKTNV-1" source="_pYosGrHa2MGI-XEjOZO-25" edge="1">
          <mxGeometry relative="1" as="geometry">
            <mxPoint x="360" y="500" as="targetPoint" />
            <Array as="points">
              <mxPoint x="96" y="540" />
              <mxPoint x="360" y="540" />
            </Array>
          </mxGeometry>
        </mxCell>
        <mxCell id="_pYosGrHa2MGI-XEjOZO-25" value="BÉNÉVOLES" style="shape=mxgraph.signs.people.man_1;html=1;pointerEvents=1;fillColor=#000000;strokeColor=none;verticalLabelPosition=bottom;verticalAlign=top;align=center;sketch=0;" parent="WIyWlLk6GJQsqaUBKTNV-1" vertex="1">
          <mxGeometry x="70" y="470" width="40" height="80" as="geometry" />
        </mxCell>
        <mxCell id="_pYosGrHa2MGI-XEjOZO-26" value="S&#39;INSCRIRE" style="ellipse;whiteSpace=wrap;html=1;" parent="WIyWlLk6GJQsqaUBKTNV-1" vertex="1">
          <mxGeometry x="200" y="450" width="120" height="60" as="geometry" />
        </mxCell>
        <mxCell id="_pYosGrHa2MGI-XEjOZO-27" value="&lt;div&gt;NOTER SES&lt;/div&gt;&lt;div&gt;DISPONIBILITÉS&lt;br&gt;&lt;/div&gt;" style="ellipse;whiteSpace=wrap;html=1;" parent="WIyWlLk6GJQsqaUBKTNV-1" vertex="1">
          <mxGeometry x="310" y="500" width="120" height="60" as="geometry" />
        </mxCell>
        <mxCell id="_pYosGrHa2MGI-XEjOZO-32" value="SAISIR EVENTS" style="ellipse;whiteSpace=wrap;html=1;" parent="WIyWlLk6GJQsqaUBKTNV-1" vertex="1">
          <mxGeometry x="390" y="615" width="120" height="60" as="geometry" />
        </mxCell>
        <mxCell id="_pYosGrHa2MGI-XEjOZO-33" value="&lt;div&gt;SAISIR TÂCHES&lt;/div&gt;" style="ellipse;whiteSpace=wrap;html=1;" parent="WIyWlLk6GJQsqaUBKTNV-1" vertex="1">
          <mxGeometry x="370" y="765" width="120" height="60" as="geometry" />
        </mxCell>
        <mxCell id="_pYosGrHa2MGI-XEjOZO-38" value="&lt;div&gt;AFFECTER LES&lt;/div&gt;&lt;div&gt;BÉNÉVOLES&lt;br&gt;&lt;/div&gt;" style="ellipse;whiteSpace=wrap;html=1;" parent="WIyWlLk6GJQsqaUBKTNV-1" vertex="1">
          <mxGeometry x="220" y="585" width="120" height="60" as="geometry" />
        </mxCell>
        <mxCell id="_pYosGrHa2MGI-XEjOZO-40" value="&lt;div&gt;VISUALISER&lt;/div&gt;&lt;div&gt;ENCHAÎNEMENT&lt;/div&gt;&lt;div&gt;DES TÂCHES&lt;/div&gt;" style="ellipse;whiteSpace=wrap;html=1;" parent="WIyWlLk6GJQsqaUBKTNV-1" vertex="1">
          <mxGeometry x="50" y="635" width="120" height="60" as="geometry" />
        </mxCell>
        <mxCell id="_pYosGrHa2MGI-XEjOZO-41" value="&lt;div&gt;ÉDITER&lt;/div&gt;&lt;div&gt;DES LISTES&lt;br&gt;&lt;/div&gt;" style="ellipse;whiteSpace=wrap;html=1;" parent="WIyWlLk6GJQsqaUBKTNV-1" vertex="1">
          <mxGeometry x="50" y="745" width="120" height="60" as="geometry" />
        </mxCell>
        <mxCell id="_pYosGrHa2MGI-XEjOZO-44" value="" style="whiteSpace=wrap;html=1;fillColor=#cce5ff;strokeColor=#36393d;strokeWidth=3;" parent="WIyWlLk6GJQsqaUBKTNV-1" vertex="1">
          <mxGeometry x="60" y="860" width="692" height="120" as="geometry" />
        </mxCell>
        <mxCell id="_pYosGrHa2MGI-XEjOZO-80" style="edgeStyle=orthogonalEdgeStyle;rounded=0;orthogonalLoop=1;jettySize=auto;html=1;exitX=0;exitY=0.75;exitDx=0;exitDy=0;entryX=0;entryY=0.5;entryDx=0;entryDy=0;endArrow=none;endFill=0;" parent="WIyWlLk6GJQsqaUBKTNV-1" source="_pYosGrHa2MGI-XEjOZO-55" target="_pYosGrHa2MGI-XEjOZO-74" edge="1">
          <mxGeometry relative="1" as="geometry">
            <Array as="points">
              <mxPoint x="412" y="922" />
            </Array>
          </mxGeometry>
        </mxCell>
        <mxCell id="_pYosGrHa2MGI-XEjOZO-55" value="&lt;div&gt;&lt;b&gt;GESTION&lt;/b&gt;&lt;/div&gt;&lt;div style=&quot;font-size: 10px&quot;&gt;&lt;b&gt;(&lt;/b&gt;&lt;i&gt;gérer bénévoles et événements&lt;/i&gt;&lt;b&gt;)&lt;/b&gt;&lt;br&gt;&lt;/div&gt;" style="whiteSpace=wrap;html=1;fillColor=#ffcc99;strokeColor=#36393d;strokeWidth=2;" parent="WIyWlLk6GJQsqaUBKTNV-1" vertex="1">
          <mxGeometry x="412" y="870" width="160" height="41" as="geometry" />
        </mxCell>
        <mxCell id="_pYosGrHa2MGI-XEjOZO-65" style="edgeStyle=orthogonalEdgeStyle;rounded=0;orthogonalLoop=1;jettySize=auto;html=1;entryX=0;entryY=0.75;entryDx=0;entryDy=0;endArrow=none;endFill=0;exitX=0;exitY=1;exitDx=0;exitDy=0;" parent="WIyWlLk6GJQsqaUBKTNV-1" source="_pYosGrHa2MGI-XEjOZO-57" target="_pYosGrHa2MGI-XEjOZO-62" edge="1">
          <mxGeometry relative="1" as="geometry">
            <Array as="points">
              <mxPoint x="582" y="946" />
            </Array>
          </mxGeometry>
        </mxCell>
        <mxCell id="_pYosGrHa2MGI-XEjOZO-67" style="edgeStyle=orthogonalEdgeStyle;rounded=0;orthogonalLoop=1;jettySize=auto;html=1;exitX=0;exitY=1;exitDx=0;exitDy=0;entryX=0;entryY=0.5;entryDx=0;entryDy=0;endArrow=none;endFill=0;" parent="WIyWlLk6GJQsqaUBKTNV-1" source="_pYosGrHa2MGI-XEjOZO-57" target="_pYosGrHa2MGI-XEjOZO-61" edge="1">
          <mxGeometry relative="1" as="geometry" />
        </mxCell>
        <mxCell id="_pYosGrHa2MGI-XEjOZO-68" style="edgeStyle=orthogonalEdgeStyle;rounded=0;orthogonalLoop=1;jettySize=auto;html=1;exitX=0;exitY=0.5;exitDx=0;exitDy=0;entryX=0;entryY=0.5;entryDx=0;entryDy=0;endArrow=none;endFill=0;" parent="WIyWlLk6GJQsqaUBKTNV-1" source="_pYosGrHa2MGI-XEjOZO-57" target="_pYosGrHa2MGI-XEjOZO-61" edge="1">
          <mxGeometry relative="1" as="geometry">
            <Array as="points">
              <mxPoint x="582" y="921" />
            </Array>
          </mxGeometry>
        </mxCell>
        <mxCell id="_pYosGrHa2MGI-XEjOZO-57" value="&lt;div&gt;&lt;b&gt;TÂCHES&lt;/b&gt;&lt;/div&gt;&lt;div&gt;&lt;b&gt;(&lt;/b&gt;&lt;i&gt;voir et éditer les tâches&lt;/i&gt;&lt;b&gt;)&lt;/b&gt;&lt;br&gt;&lt;/div&gt;" style="whiteSpace=wrap;html=1;fillColor=#ffcc99;strokeColor=#36393d;strokeWidth=2;" parent="WIyWlLk6GJQsqaUBKTNV-1" vertex="1">
          <mxGeometry x="582" y="870" width="160" height="41" as="geometry" />
        </mxCell>
        <mxCell id="_pYosGrHa2MGI-XEjOZO-58" value="&lt;div&gt;&lt;b&gt;INSCRIPTIONS&lt;/b&gt;&lt;/div&gt;&lt;div&gt;&lt;b&gt;(&lt;/b&gt;&lt;i&gt;devenez bénévole&lt;/i&gt;&lt;b&gt;)&lt;/b&gt;&lt;br&gt;&lt;b&gt;&lt;/b&gt;&lt;/div&gt;" style="whiteSpace=wrap;html=1;fillColor=#cdeb8b;strokeColor=#36393d;strokeWidth=2;" parent="WIyWlLk6GJQsqaUBKTNV-1" vertex="1">
          <mxGeometry x="72" y="870" width="160" height="41" as="geometry" />
        </mxCell>
        <mxCell id="_pYosGrHa2MGI-XEjOZO-59" value="&lt;div&gt;&lt;b&gt;CALENDRIER&lt;/b&gt;&lt;/div&gt;&lt;div&gt;&lt;b&gt;(&lt;/b&gt;&lt;i&gt;disponibilités&lt;/i&gt;&lt;b&gt;)&lt;/b&gt;&lt;br&gt;&lt;b&gt;&lt;/b&gt;&lt;/div&gt;" style="whiteSpace=wrap;html=1;fillColor=#cdeb8b;strokeColor=#36393d;strokeWidth=2;" parent="WIyWlLk6GJQsqaUBKTNV-1" vertex="1">
          <mxGeometry x="242" y="870" width="160" height="41" as="geometry" />
        </mxCell>
        <mxCell id="_pYosGrHa2MGI-XEjOZO-61" value="Voir les tâches" style="whiteSpace=wrap;html=1;fillColor=none;strokeWidth=1;align=left;" parent="WIyWlLk6GJQsqaUBKTNV-1" vertex="1">
          <mxGeometry x="592" y="911" width="150" height="20" as="geometry" />
        </mxCell>
        <mxCell id="_pYosGrHa2MGI-XEjOZO-62" value="&lt;div&gt;Éditer les tâches&lt;br&gt;&lt;/div&gt;" style="whiteSpace=wrap;html=1;fillColor=none;strokeWidth=1;align=left;" parent="WIyWlLk6GJQsqaUBKTNV-1" vertex="1">
          <mxGeometry x="592" y="931" width="150" height="20" as="geometry" />
        </mxCell>
        <mxCell id="_pYosGrHa2MGI-XEjOZO-72" style="edgeStyle=orthogonalEdgeStyle;rounded=0;orthogonalLoop=1;jettySize=auto;html=1;exitX=0;exitY=0.5;exitDx=0;exitDy=0;entryX=0;entryY=0.5;entryDx=0;entryDy=0;endArrow=none;endFill=0;" parent="WIyWlLk6GJQsqaUBKTNV-1" target="_pYosGrHa2MGI-XEjOZO-73" edge="1">
          <mxGeometry relative="1" as="geometry">
            <mxPoint x="242" y="890.75" as="sourcePoint" />
            <Array as="points">
              <mxPoint x="242" y="921.25" />
            </Array>
          </mxGeometry>
        </mxCell>
        <mxCell id="_pYosGrHa2MGI-XEjOZO-73" value="Gérer ses disponibilités" style="whiteSpace=wrap;html=1;fillColor=none;strokeWidth=1;align=left;" parent="WIyWlLk6GJQsqaUBKTNV-1" vertex="1">
          <mxGeometry x="252" y="911.25" width="150" height="20" as="geometry" />
        </mxCell>
        <mxCell id="_pYosGrHa2MGI-XEjOZO-74" value="Affecter les bénévoles" style="whiteSpace=wrap;html=1;fillColor=none;strokeWidth=1;align=left;" parent="WIyWlLk6GJQsqaUBKTNV-1" vertex="1">
          <mxGeometry x="422" y="911.5" width="150" height="20" as="geometry" />
        </mxCell>
        <mxCell id="_pYosGrHa2MGI-XEjOZO-77" style="edgeStyle=orthogonalEdgeStyle;rounded=0;orthogonalLoop=1;jettySize=auto;html=1;entryX=0;entryY=0.75;entryDx=0;entryDy=0;endArrow=none;endFill=0;exitX=0;exitY=1;exitDx=0;exitDy=0;" parent="WIyWlLk6GJQsqaUBKTNV-1" edge="1">
          <mxGeometry relative="1" as="geometry">
            <mxPoint x="412" y="906.25" as="sourcePoint" />
            <Array as="points">
              <mxPoint x="412" y="941.25" />
            </Array>
            <mxPoint x="422" y="941.25" as="targetPoint" />
          </mxGeometry>
        </mxCell>
        <mxCell id="_pYosGrHa2MGI-XEjOZO-78" value="Gérer les postes" style="whiteSpace=wrap;html=1;fillColor=none;strokeWidth=1;align=left;" parent="WIyWlLk6GJQsqaUBKTNV-1" vertex="1">
          <mxGeometry x="422" y="931.25" width="150" height="20" as="geometry" />
        </mxCell>
        <mxCell id="_pYosGrHa2MGI-XEjOZO-81" style="edgeStyle=orthogonalEdgeStyle;rounded=0;orthogonalLoop=1;jettySize=auto;html=1;exitX=0;exitY=0.5;exitDx=0;exitDy=0;entryX=0;entryY=0.5;entryDx=0;entryDy=0;endArrow=none;endFill=0;" parent="WIyWlLk6GJQsqaUBKTNV-1" target="_pYosGrHa2MGI-XEjOZO-82" edge="1">
          <mxGeometry relative="1" as="geometry">
            <mxPoint x="72" y="891" as="sourcePoint" />
            <Array as="points">
              <mxPoint x="72" y="921.5" />
            </Array>
          </mxGeometry>
        </mxCell>
        <mxCell id="_pYosGrHa2MGI-XEjOZO-82" value="Devenir un bénévole" style="whiteSpace=wrap;html=1;fillColor=none;strokeWidth=1;align=left;" parent="WIyWlLk6GJQsqaUBKTNV-1" vertex="1">
          <mxGeometry x="82" y="911.5" width="150" height="20" as="geometry" />
        </mxCell>
        <mxCell id="_pYosGrHa2MGI-XEjOZO-83" style="edgeStyle=orthogonalEdgeStyle;rounded=0;orthogonalLoop=1;jettySize=auto;html=1;entryX=0;entryY=0.75;entryDx=0;entryDy=0;endArrow=none;endFill=0;exitX=0;exitY=1;exitDx=0;exitDy=0;" parent="WIyWlLk6GJQsqaUBKTNV-1" target="_pYosGrHa2MGI-XEjOZO-84" edge="1">
          <mxGeometry relative="1" as="geometry">
            <mxPoint x="412" y="931" as="sourcePoint" />
            <Array as="points">
              <mxPoint x="412" y="961" />
              <mxPoint x="422" y="961" />
            </Array>
          </mxGeometry>
        </mxCell>
        <mxCell id="_pYosGrHa2MGI-XEjOZO-84" value="Gérer les événements" style="whiteSpace=wrap;html=1;fillColor=none;strokeWidth=1;align=left;" parent="WIyWlLk6GJQsqaUBKTNV-1" vertex="1">
          <mxGeometry x="422" y="951.25" width="150" height="20" as="geometry" />
        </mxCell>
        <mxCell id="ANoVoo3EdIFNYSjs5ymE-72" value="&lt;b style=&quot;font-size: 20px&quot;&gt;&lt;font style=&quot;font-size: 20px&quot;&gt;CONCEPTION DE LA BASE DE DONNÉES&lt;/font&gt;&lt;br&gt;&lt;/b&gt;" style="text;html=1;align=center;verticalAlign=middle;resizable=0;points=[];autosize=1;strokeColor=none;fillColor=none;" vertex="1" parent="WIyWlLk6GJQsqaUBKTNV-1">
          <mxGeometry x="209" y="1130" width="410" height="20" as="geometry" />
        </mxCell>
        <mxCell id="ANoVoo3EdIFNYSjs5ymE-74" value="BÉNÉVOLES" style="swimlane;childLayout=stackLayout;horizontal=1;startSize=30;horizontalStack=0;rounded=1;fontSize=14;fontStyle=1;strokeWidth=2;resizeParent=0;resizeLast=1;shadow=0;dashed=0;align=center;fillColor=#dae8fc;gradientColor=#7ea6e0;strokeColor=#6c8ebf;" vertex="1" parent="WIyWlLk6GJQsqaUBKTNV-1">
          <mxGeometry x="40" y="1280" width="160" height="140" as="geometry" />
        </mxCell>
        <mxCell id="ANoVoo3EdIFNYSjs5ymE-75" value="IDuser&#xa;nom&#xa;prenom&#xa;adresse&#xa;codePostal&#xa;ville&#xa;telephone" style="align=left;strokeColor=none;fillColor=none;spacingLeft=4;fontSize=12;verticalAlign=top;resizable=0;rotatable=0;part=1;" vertex="1" parent="ANoVoo3EdIFNYSjs5ymE-74">
          <mxGeometry y="30" width="160" height="110" as="geometry" />
        </mxCell>
        <mxCell id="ANoVoo3EdIFNYSjs5ymE-76" value="USER" style="swimlane;childLayout=stackLayout;horizontal=1;startSize=30;horizontalStack=0;rounded=1;fontSize=14;fontStyle=1;strokeWidth=2;resizeParent=0;resizeLast=1;shadow=0;dashed=0;align=center;fillColor=#dae8fc;strokeColor=#6c8ebf;gradientColor=#7ea6e0;" vertex="1" parent="WIyWlLk6GJQsqaUBKTNV-1">
          <mxGeometry x="560" y="1380" width="160" height="120" as="geometry">
            <mxRectangle x="580" y="1270" width="70" height="30" as="alternateBounds" />
          </mxGeometry>
        </mxCell>
        <mxCell id="ANoVoo3EdIFNYSjs5ymE-77" value="IDuser&#xa;mdp&#xa;nom&#xa;prenom&#xa;adresseMail" style="align=left;strokeColor=none;fillColor=none;spacingLeft=4;fontSize=12;verticalAlign=top;resizable=0;rotatable=0;part=1;" vertex="1" parent="ANoVoo3EdIFNYSjs5ymE-76">
          <mxGeometry y="30" width="160" height="90" as="geometry" />
        </mxCell>
        <mxCell id="ANoVoo3EdIFNYSjs5ymE-78" value="ÉVÉNEMENTS" style="swimlane;childLayout=stackLayout;horizontal=1;startSize=30;horizontalStack=0;rounded=1;fontSize=14;fontStyle=1;strokeWidth=2;resizeParent=0;resizeLast=1;shadow=0;dashed=0;align=center;fillColor=#dae8fc;strokeColor=#6c8ebf;gradientColor=#7ea6e0;" vertex="1" parent="WIyWlLk6GJQsqaUBKTNV-1">
          <mxGeometry x="30" y="1540" width="160" height="120" as="geometry" />
        </mxCell>
        <mxCell id="ANoVoo3EdIFNYSjs5ymE-79" value="idEvent&#xa;nomEvent&#xa;lieu&#xa;" style="align=left;strokeColor=none;fillColor=none;spacingLeft=4;fontSize=12;verticalAlign=top;resizable=0;rotatable=0;part=1;" vertex="1" parent="ANoVoo3EdIFNYSjs5ymE-78">
          <mxGeometry y="30" width="160" height="90" as="geometry" />
        </mxCell>
        <mxCell id="ANoVoo3EdIFNYSjs5ymE-187" value="TÂCHES" style="swimlane;childLayout=stackLayout;horizontal=1;startSize=30;horizontalStack=0;rounded=1;fontSize=14;fontStyle=1;strokeWidth=2;resizeParent=0;resizeLast=1;shadow=0;dashed=0;align=center;fillColor=#dae8fc;strokeColor=#6c8ebf;gradientColor=#7ea6e0;glass=0;sketch=0;" vertex="1" parent="WIyWlLk6GJQsqaUBKTNV-1">
          <mxGeometry x="334" y="1380" width="160" height="120" as="geometry" />
        </mxCell>
        <mxCell id="ANoVoo3EdIFNYSjs5ymE-188" value="numTâche&#xa;nomTâche" style="align=left;strokeColor=none;fillColor=none;spacingLeft=4;fontSize=12;verticalAlign=top;resizable=0;rotatable=0;part=1;" vertex="1" parent="ANoVoo3EdIFNYSjs5ymE-187">
          <mxGeometry y="30" width="160" height="90" as="geometry" />
        </mxCell>
        <mxCell id="ANoVoo3EdIFNYSjs5ymE-247" style="edgeStyle=orthogonalEdgeStyle;rounded=0;orthogonalLoop=1;jettySize=auto;html=1;exitX=0;exitY=0.5;exitDx=0;exitDy=0;entryX=1.013;entryY=0.078;entryDx=0;entryDy=0;entryPerimeter=0;fontSize=20;endArrow=none;endFill=0;" edge="1" parent="WIyWlLk6GJQsqaUBKTNV-1" source="ANoVoo3EdIFNYSjs5ymE-242" target="ANoVoo3EdIFNYSjs5ymE-79">
          <mxGeometry relative="1" as="geometry" />
        </mxCell>
        <mxCell id="ANoVoo3EdIFNYSjs5ymE-242" value="associée" style="ellipse;whiteSpace=wrap;html=1;shadow=0;glass=0;sketch=0;fontSize=20;strokeColor=#000000;align=center;" vertex="1" parent="WIyWlLk6GJQsqaUBKTNV-1">
          <mxGeometry x="340" y="1560" width="120" height="80" as="geometry" />
        </mxCell>
        <mxCell id="ANoVoo3EdIFNYSjs5ymE-246" style="edgeStyle=orthogonalEdgeStyle;rounded=0;orthogonalLoop=1;jettySize=auto;html=1;exitX=0.25;exitY=1;exitDx=0;exitDy=0;fontSize=20;endArrow=none;endFill=0;" edge="1" parent="WIyWlLk6GJQsqaUBKTNV-1" source="ANoVoo3EdIFNYSjs5ymE-188" target="ANoVoo3EdIFNYSjs5ymE-242">
          <mxGeometry relative="1" as="geometry" />
        </mxCell>
        <mxCell id="ANoVoo3EdIFNYSjs5ymE-248" value="1,n" style="text;html=1;align=center;verticalAlign=middle;resizable=0;points=[];autosize=1;strokeColor=none;fillColor=none;fontSize=20;" vertex="1" parent="WIyWlLk6GJQsqaUBKTNV-1">
          <mxGeometry x="240" y="1605" width="40" height="30" as="geometry" />
        </mxCell>
        <mxCell id="ANoVoo3EdIFNYSjs5ymE-249" value="1,1" style="text;html=1;align=center;verticalAlign=middle;resizable=0;points=[];autosize=1;strokeColor=none;fillColor=none;fontSize=20;" vertex="1" parent="WIyWlLk6GJQsqaUBKTNV-1">
          <mxGeometry x="410" y="1510" width="40" height="30" as="geometry" />
        </mxCell>
        <mxCell id="ANoVoo3EdIFNYSjs5ymE-252" style="edgeStyle=orthogonalEdgeStyle;rounded=0;orthogonalLoop=1;jettySize=auto;html=1;exitX=1;exitY=1;exitDx=0;exitDy=0;entryX=0.5;entryY=0;entryDx=0;entryDy=0;fontSize=20;endArrow=none;endFill=0;" edge="1" parent="WIyWlLk6GJQsqaUBKTNV-1" source="ANoVoo3EdIFNYSjs5ymE-250" target="ANoVoo3EdIFNYSjs5ymE-187">
          <mxGeometry relative="1" as="geometry" />
        </mxCell>
        <mxCell id="ANoVoo3EdIFNYSjs5ymE-250" value="affecté" style="ellipse;whiteSpace=wrap;html=1;shadow=0;glass=0;sketch=0;fontSize=20;strokeColor=#000000;align=center;" vertex="1" parent="WIyWlLk6GJQsqaUBKTNV-1">
          <mxGeometry x="270" y="1250" width="120" height="80" as="geometry" />
        </mxCell>
        <mxCell id="ANoVoo3EdIFNYSjs5ymE-251" style="edgeStyle=orthogonalEdgeStyle;rounded=0;orthogonalLoop=1;jettySize=auto;html=1;exitX=1;exitY=0;exitDx=0;exitDy=0;entryX=-0.025;entryY=0.638;entryDx=0;entryDy=0;entryPerimeter=0;fontSize=20;endArrow=none;endFill=0;" edge="1" parent="WIyWlLk6GJQsqaUBKTNV-1" source="ANoVoo3EdIFNYSjs5ymE-75" target="ANoVoo3EdIFNYSjs5ymE-250">
          <mxGeometry relative="1" as="geometry" />
        </mxCell>
        <mxCell id="ANoVoo3EdIFNYSjs5ymE-253" value="1,n" style="text;html=1;align=center;verticalAlign=middle;resizable=0;points=[];autosize=1;strokeColor=none;fillColor=none;fontSize=20;" vertex="1" parent="WIyWlLk6GJQsqaUBKTNV-1">
          <mxGeometry x="220" y="1315" width="40" height="30" as="geometry" />
        </mxCell>
        <mxCell id="ANoVoo3EdIFNYSjs5ymE-254" value="1,n" style="text;html=1;align=center;verticalAlign=middle;resizable=0;points=[];autosize=1;strokeColor=none;fillColor=none;fontSize=20;" vertex="1" parent="WIyWlLk6GJQsqaUBKTNV-1">
          <mxGeometry x="400" y="1275" width="40" height="30" as="geometry" />
        </mxCell>
      </root>
    </mxGraphModel>
  </diagram>
</mxfile>
